Coordinates
version=1
nRows=18
nColumns=28
inDegrees=yes

Units are S.I. units (second, meters, Newtons, ...)
Angles are in degrees.

endheader
time	pelvis_tilt	pelvis_list	pelvis_rotation	pelvis_tx	pelvis_ty	pelvis_tz	hip_flexion_r	hip_adduction_r	hip_rotation_r	knee_angle_r	ankle_angle_r	subtalar_angle_r	mtp_angle_r	hip_flexion_l	hip_adduction_l	hip_rotation_l	knee_angle_l	socket_flexion	socket_adduction	socket_rotation	socket_tx	socket_ty	socket_tz	foot_flex	lumbar_extension	lumbar_bending	lumbar_rotation
      0.31250000	      3.95767653	     -0.99609184	     -8.27024397	     -0.34183974	      1.02378002	      0.31345088	     16.12274174	     -0.31362839	     -0.79249330	    -66.61150410	      2.61235135	    -11.72630792	     21.47879340	      4.83062621	      3.13372478	      6.54347244	    -24.40551627	    -11.13387707	      0.00000000	      0.00000000	      0.00000000	      0.00000000	      0.00000000	      0.38224656	    -15.29426567	     -2.63570144	      9.52237491
      0.31666667	      4.14776935	     -1.05881054	     -7.98072780	     -0.33686623	      1.02433489	      0.31285847	     16.38820814	     -0.30698292	     -1.09410034	    -66.16614879	      3.10960726	    -11.06739618	     21.60574622	      4.28026314	      3.17101838	      6.82965423	    -24.32305733	    -11.13802960	      0.00000000	      0.00000000	      0.00000000	      0.00000000	      0.00000000	      0.50521644	    -15.55801901	     -2.47412467	      9.03971996
      0.32083333	      4.18884837	     -1.05157848	     -7.91889889	     -0.33221716	      1.02456319	      0.31270443	     16.93468690	     -0.24909370	     -1.14212740	    -65.80066421	      3.16723489	    -11.06908303	     21.61104681	      3.94528976	      3.22793047	      6.83526446	    -24.32323105	    -11.16495767	      0.00000000	      0.00000000	      0.00000000	      0.00000000	      0.00000000	      0.55582916	    -15.67228806	     -2.50074231	      9.02723269
      0.32500000	      4.19084872	     -1.07731772	     -7.82199443	     -0.32696455	      1.02490500	      0.31265435	     17.36464258	     -0.13417986	     -1.19364462	    -65.24198342	      3.45924471	    -11.03613675	     21.65547085	      3.49196900	      3.23322231	      6.98167736	    -24.06039740	    -11.12901875	      0.00000000	      0.00000000	      0.00000000	      0.00000000	      0.00000000	      0.74530891	    -15.62334518	     -2.47827782	      8.93554308
      0.32916667	      4.22181070	     -1.15643416	     -7.66708671	     -0.32190977	      1.02524709	      0.31245687	     17.76453327	      0.01127820	     -1.31673449	    -64.66513634	      3.84007384	    -10.93104603	     21.71531850	      3.06228924	      3.19036074	      7.13191867	    -23.89415415	    -11.11359056	      0.00000000	      0.00000000	      0.00000000	      0.00000000	      0.00000000	      0.85489348	    -15.67042197	     -2.36180168	      8.77906136
      0.33333333	      4.25992354	     -1.14111983	     -7.60580503	     -0.31740213	      1.02537746	      0.31231307	     18.30081141	      0.05481191	     -1.37642712	    -64.22861785	      3.90994701	    -10.91897592	     21.72033932	      2.74868453	      3.25315574	      7.13833636	    -23.90939971	    -11.14283001	      0.00000000	      0.00000000	      0.00000000	      0.00000000	      0.00000000	      0.90235171	    -15.82004873	     -2.37140109	      8.75429617
      0.33750000	      4.27607850	     -1.16771719	     -7.44317333	     -0.31216299	      1.02568468	      0.31223297	     18.63315053	      0.15453130	     -1.47040003	    -63.49554953	      4.19990502	    -10.84013916	     21.75181871	      2.31344368	      3.25540503	      7.30046784	    -23.71489455	    -11.12021493	      0.00000000	      0.00000000	      0.00000000	      0.00000000	      0.00000000	      1.08792526	    -15.78324401	     -2.34862253	      8.61174537
      0.34166667	      4.56951306	     -1.45896295	     -6.91978812	     -0.30722449	      1.02646511	      0.31121943	     18.58183548	      0.28881714	     -2.08783064	    -62.66475336	      4.82472052	    -10.26396234	     21.74325232	      1.62648037	      3.05674479	      7.85436898	    -23.60172090	    -11.11934900	      0.00000000	      0.00000000	      0.00000000	      0.00000000	      0.00000000	      1.22170703	    -16.23839906	     -1.82882086	      7.85291362
      0.34583333	      4.59319461	     -1.41790525	     -6.83661409	     -0.30252403	      1.02656175	      0.31121506	     19.03012009	      0.30840817	     -2.14455720	    -62.04111742	      4.90984136	    -10.26304084	     21.73080873	      1.28806064	      3.12491202	      7.87841519	    -23.54031771	    -11.11747003	      0.00000000	      0.00000000	      0.00000000	      0.00000000	      0.00000000	      1.30984737	    -16.31069679	     -1.92074358	      7.80871243
      0.35000000	      4.73949703	     -1.58262637	     -6.53891992	     -0.29748483	      1.02706267	      0.31080232	     19.16727615	      0.44621560	     -2.49667268	    -61.19401307	      5.30201753	    -10.17925881	     21.60973095	      0.71907443	      3.00102216	      8.22376058	    -23.34924320	    -11.10081905	      0.00000000	      0.00000000	      0.00000000	      0.00000000	      0.00000000	      1.41332983	    -16.50990262	     -1.66249765	      7.44898351
      0.35416667	      4.88151130	     -1.66279334	     -6.29373136	     -0.29262754	      1.02744022	      0.31047760	     19.34341437	      0.51021012	     -2.76242423	    -60.35795589	      5.49989213	    -10.14768984	     21.39493714	      0.20263561	      2.95983360	      8.45702455	    -23.21550142	    -11.09292858	      0.00000000	      0.00000000	      0.00000000	      0.00000000	      0.00000000	      1.53180328	    -16.71873151	     -1.53600112	      7.15875989
      0.35833333	      5.01075894	     -1.72339187	     -6.07389432	     -0.28781811	      1.02776311	      0.31021612	     19.53843484	      0.56513770	     -3.00617640	    -59.51436789	      5.69666444	    -10.16506189	     21.03653460	     -0.29287713	      2.93219382	      8.66214200	    -23.09237942	    -11.08679714	      0.00000000	      0.00000000	      0.00000000	      0.00000000	      0.00000000	      1.65702394	    -16.91843224	     -1.44159328	      6.89754352
      0.36250000	      4.99384717	     -1.67627557	     -5.99375353	     -0.28302517	      1.02776155	      0.31019726	     19.93899891	      0.57907570	     -3.07147965	    -58.71176468	      5.83215246	    -10.20606491	     21.00115631	     -0.61784829	      3.00181139	      8.70822973	    -22.98740422	    -11.08687951	      0.00000000	      0.00000000	      0.00000000	      0.00000000	      0.00000000	      1.78141114	    -16.92891616	     -1.50346589	      6.86914201
      0.36666667	      4.96859498	     -1.68204568	     -5.86633633	     -0.27815496	      1.02779129	      0.31012833	     20.29141509	      0.63406246	     -3.20444639	    -57.82656170	      6.02780738	    -10.29274137	     20.94138466	     -0.96105721	      3.00533448	      8.83054189	    -22.83405695	    -11.06967171	      0.00000000	      0.00000000	      0.00000000	      0.00000000	      0.00000000	      1.90001523	    -16.92282755	     -1.48920796	      6.80524036
      0.37083333	      5.23299558	     -1.90907154	     -5.49276046	     -0.27340108	      1.02840431	      0.30961415	     20.19313066	      0.81474420	     -3.62721300	    -56.74829457	      6.43607382	    -10.39177631	     19.43628143	     -1.60303782	      2.80270008	      9.18998804	    -22.72028441	    -11.06182579	      0.00000000	      0.00000000	      0.00000000	      0.00000000	      0.00000000	      2.01508499	    -17.31781152	     -1.15883298	      6.40492740
      0.37500000	      5.19224669	     -1.83759672	     -5.41449925	     -0.26866049	      1.02829231	      0.30961056	     20.57385011	      0.79823044	     -3.70641738	    -55.84453751	      6.56478124	    -10.46308772	     19.40842831	     -1.88295609	      2.89072106	      9.21937476	    -22.65206671	    -11.06488602	      0.00000000	      0.00000000	      0.00000000	      0.00000000	      0.00000000	      2.14181615	    -17.30187470	     -1.24811964	      6.37104097
      0.37916667	      5.13333344	     -1.81767273	     -5.28501650	     -0.26386370	      1.02820622	      0.30952954	     20.91824369	      0.82639448	     -3.84055046	    -54.85901233	      6.73572570	    -10.59628586	     19.35726772	     -2.16926498	      2.91723121	      9.32928509	    -22.52808273	    -11.04992950	      0.00000000	      0.00000000	      0.00000000	      0.00000000	      0.00000000	      2.25732848	    -17.26957187	     -1.26206760	      6.31161206
      0.38333333	      5.09788646	     -1.74934925	     -5.23422871	     -0.25939913	      1.02799952	      0.30951359	     21.32096616	      0.80441743	     -3.94733297	    -53.96891508	      6.83845986	    -10.66710241	     19.32740108	     -2.41386682	      3.00916717	      9.34081275	    -22.50644788	    -11.06109916	      0.00000000	      0.00000000	      0.00000000	      0.00000000	      0.00000000	      2.35474209	    -17.35225724	     -1.32622005	      6.27903134
